<?xml version="1.0" standalone="no"?>
<!DOCTYPE svg PUBLIC "-//W3C//DTD SVG 20010904//EN"
 "http://www.w3.org/TR/2001/REC-SVG-20010904/DTD/svg10.dtd">
<svg version="1.0" xmlns="http://www.w3.org/2000/svg"
 width="178.000000pt" height="178.000000pt" viewBox="0 0 178.000000 178.000000"
 preserveAspectRatio="xMidYMid meet">
<metadata>
Created by potrace 1.14, written by Peter Selinger 2001-2017
</metadata>
<g transform="translate(0.000000,178.000000) scale(0.100000,-0.100000)"
fill="#000000" stroke="none">
<path d="M892 1470 c-12 -5 -25 -16 -28 -25 -3 -8 -10 -13 -14 -10 -5 3 -11
-4 -15 -15 -4 -11 -11 -17 -17 -14 -7 4 -8 2 -4 -5 5 -7 -9 -27 -36 -52 -23
-22 -37 -38 -30 -34 17 9 15 -16 -3 -42 -14 -20 -16 -19 -84 48 -42 40 -96 81
-133 100 -63 32 -64 32 -248 37 l-185 5 -18 -38 c-15 -32 -20 -35 -34 -23 -15
12 -15 11 -3 -9 12 -18 17 -20 30 -10 12 10 13 10 4 -3 -6 -8 -11 -34 -10 -57
1 -23 -2 -39 -7 -36 -5 3 -6 11 -4 17 3 7 -1 13 -8 13 -11 0 -11 -5 1 -28 16
-33 17 -40 5 -36 -5 1 -9 -2 -9 -8 0 -5 3 -9 6 -8 4 0 13 -5 20 -13 7 -8 9
-14 3 -14 -12 0 -8 -24 7 -43 10 -12 9 -14 -5 -13 -10 0 -19 -3 -20 -9 -2 -5
1 -10 6 -10 5 0 13 -4 18 -9 4 -5 3 -6 -4 -2 -7 4 -12 0 -11 -11 0 -10 -3 -27
-7 -38 -6 -16 -3 -15 15 5 l21 25 -12 -25 c-7 -14 -12 -29 -11 -33 1 -5 -3 -5
-9 -1 -7 4 -10 2 -7 -7 3 -8 10 -13 16 -12 6 2 9 -4 6 -12 -4 -8 -10 -15 -16
-15 -5 0 -6 4 -3 10 3 6 -1 7 -10 4 -14 -6 -14 -8 2 -20 10 -7 14 -14 8 -14
-5 0 -3 -5 5 -10 10 -6 11 -10 3 -10 -7 0 -13 -9 -13 -21 0 -13 4 -18 13 -13
9 6 9 4 -1 -7 -17 -18 -15 -34 2 -20 11 9 16 9 22 0 4 -7 3 -9 -3 -6 -6 4 -17
-1 -24 -10 -8 -10 -9 -14 -2 -10 6 4 15 2 19 -4 4 -7 3 -9 -3 -6 -5 3 -17 -3
-26 -14 -17 -20 -9 -27 10 -8 7 7 12 6 17 -6 3 -9 2 -13 -4 -10 -6 3 -10 1
-10 -5 0 -6 -4 -9 -10 -5 -5 3 -3 -7 5 -21 10 -19 11 -33 4 -46 -7 -13 -6 -18
3 -18 8 0 6 -5 -4 -11 -9 -5 -15 -16 -12 -24 4 -8 11 -12 18 -8 7 4 7 1 -1 -9
-7 -8 -9 -19 -5 -23 4 -5 -2 -5 -12 -1 -18 6 -19 5 -4 -11 8 -10 13 -23 11
-30 -2 -6 5 -17 17 -23 18 -9 19 -14 9 -26 -10 -13 -10 -17 2 -25 9 -5 10 -9
2 -9 -6 0 -14 4 -18 10 -3 5 -13 6 -22 3 -14 -5 -13 -7 4 -14 13 -5 20 -16 20
-33 0 -14 -3 -23 -8 -20 -5 3 -6 -3 -2 -12 5 -13 3 -15 -8 -9 -8 5 -5 -2 6
-15 11 -13 14 -20 8 -16 -7 4 -13 2 -13 -3 0 -6 10 -11 23 -11 17 0 19 -2 7
-9 -8 -6 -17 -8 -20 -6 -4 2 -7 -2 -7 -9 0 -7 6 -13 13 -13 7 0 11 4 8 9 -3 4
0 8 5 8 6 0 11 -4 11 -9 0 -14 26 -20 41 -9 11 8 11 9 -3 5 -9 -3 -19 1 -22 8
-4 11 0 12 17 6 12 -4 28 -6 35 -4 6 3 12 0 12 -7 0 -6 -5 -8 -12 -4 -7 5 -8
3 -3 -5 5 -9 10 -10 18 -2 13 13 31 15 23 3 -3 -5 1 -9 8 -9 8 0 12 6 9 12 -2
7 3 15 11 18 11 4 13 1 9 -11 -6 -15 -4 -15 14 1 20 18 21 18 38 -5 l17 -23
-5 23 c-4 18 -3 21 7 13 7 -6 15 -8 19 -5 3 3 16 7 30 8 19 2 24 -1 20 -13 -4
-14 -3 -14 6 -1 6 8 11 11 11 5 0 -5 6 -3 13 5 14 17 32 23 65 22 12 -1 22 2
22 6 0 7 15 11 57 14 7 1 10 5 7 10 -5 7 18 13 39 9 5 -1 6 3 2 9 -3 5 -2 10
4 10 20 0 88 79 117 137 16 32 30 60 31 62 2 2 9 -1 16 -8 11 -9 17 -7 28 6
13 16 12 17 -2 5 -14 -10 -18 -10 -22 3 -6 15 16 17 38 3 6 -4 23 -5 38 -4 19
2 25 0 19 -8 -5 -6 -12 -19 -15 -28 -4 -13 -2 -15 10 -11 10 4 14 2 10 -4 -4
-6 -1 -14 5 -17 7 -3 0 -3 -17 1 -29 5 -29 5 -10 -12 11 -9 15 -14 8 -11 -15
8 -27 -10 -13 -19 7 -4 7 -12 0 -25 -12 -23 -13 -40 -1 -22 6 10 10 8 14 -8 4
-17 2 -20 -11 -16 -13 5 -12 3 2 -9 20 -15 20 -15 0 -16 -16 0 -16 -2 5 -10
19 -8 21 -12 11 -24 -11 -13 -10 -18 6 -30 19 -15 19 -15 0 -8 -13 4 -17 3
-12 -5 4 -8 2 -10 -8 -6 -19 7 -15 -18 6 -39 12 -12 17 -13 21 -4 3 7 20 14
38 15 55 4 57 11 58 154 0 90 4 135 13 146 10 12 10 14 1 8 -7 -4 -13 -5 -13
-2 0 2 13 11 30 19 20 10 29 11 27 4 -1 -7 4 -11 11 -9 8 1 11 -2 8 -7 -4 -5
-2 -12 4 -16 5 -3 10 -11 10 -17 0 -6 -11 1 -24 16 -19 23 -24 25 -29 12 -4
-9 -1 -15 6 -13 7 1 11 -4 9 -11 -1 -8 2 -11 8 -7 5 3 10 1 10 -4 0 -6 -6 -11
-12 -11 -9 0 -8 -4 2 -10 13 -9 13 -11 0 -19 -12 -9 -12 -11 2 -16 9 -4 19
-13 22 -21 4 -11 2 -12 -14 -4 -16 9 -18 7 -13 -12 3 -13 5 -33 5 -45 0 -14 8
-25 22 -29 20 -7 19 -8 -9 -20 -16 -7 -24 -13 -17 -14 8 0 10 -5 6 -13 -6 -9
-5 -9 7 0 12 10 15 8 15 -8 0 -11 -5 -18 -11 -15 -7 2 -12 -2 -12 -10 0 -7 4
-11 8 -9 3 3 12 -2 19 -10 7 -8 17 -15 23 -15 6 0 3 6 -8 13 -14 11 -15 16 -5
22 9 5 11 4 6 -3 -4 -8 0 -12 11 -12 11 0 24 -5 30 -11 8 -8 14 -5 23 11 9 16
14 19 25 10 10 -8 15 -8 20 0 5 8 11 8 19 1 9 -7 17 -7 26 2 8 8 11 8 7 1 -8
-14 17 -26 38 -18 8 4 15 1 15 -6 0 -6 5 -8 10 -5 19 11 10 23 -15 21 -13 -2
-22 1 -19 5 7 12 38 6 58 -10 14 -12 16 -11 9 4 -5 14 -3 17 9 12 9 -3 19 -3
23 1 3 3 16 7 28 8 12 1 31 5 42 9 16 5 17 5 5 -4 -12 -8 -11 -10 7 -8 12 0
19 5 17 9 -5 7 11 12 29 9 4 -1 28 12 52 29 25 17 45 29 45 26 0 -3 15 9 33
27 83 80 145 249 151 407 2 63 -17 198 -35 253 -37 110 -112 194 -231 257
l-63 34 -194 4 c-110 3 -192 1 -189 -4 10 -16 -11 -56 -26 -51 -9 4 -13 0 -11
-11 1 -9 -3 -20 -9 -24 -7 -5 -7 -8 3 -8 10 0 11 -3 2 -14 -8 -9 -8 -16 -2
-20 5 -4 8 -15 6 -26 -3 -13 1 -17 11 -13 8 3 14 0 14 -6 0 -10 -14 -15 -33
-12 -5 1 -6 -3 -2 -9 3 -6 9 -9 13 -6 4 2 16 -5 27 -16 14 -14 15 -18 4 -13
-13 5 -16 0 -13 -20 2 -19 -1 -25 -11 -21 -9 3 -12 0 -8 -10 3 -9 12 -13 22
-10 11 4 10 1 -4 -9 -17 -13 -18 -18 -7 -36 8 -12 9 -18 3 -15 -5 4 -13 1 -17
-5 -4 -8 -3 -9 4 -5 17 10 15 -10 -3 -27 -13 -14 -12 -17 13 -25 15 -6 20 -11
11 -11 -26 -1 -31 -29 -9 -41 11 -6 20 -16 19 -23 0 -9 -2 -9 -6 1 -2 6 -12
12 -20 12 -13 0 -12 -3 4 -17 19 -17 19 -19 2 -37 -20 -21 -14 -50 9 -41 12 4
12 2 4 -8 -7 -8 -8 -18 -4 -23 4 -4 -2 -2 -12 6 -11 8 -17 10 -13 4 9 -15 -16
-25 -34 -13 -11 7 -13 46 -11 221 2 117 5 252 7 299 2 47 0 91 -4 98 -10 16
-60 22 -89 11z m-509 -128 c-6 -15 -3 -14 16 2 18 17 21 17 15 3 -4 -12 -1
-17 11 -17 9 0 14 4 11 8 -3 5 1 9 9 9 8 0 11 -5 8 -10 -4 -6 0 -8 9 -4 18 6
30 -1 22 -14 -3 -5 -15 -4 -27 2 -22 12 -22 12 -2 -8 11 -11 22 -16 23 -12 2
5 8 9 13 9 6 0 8 -4 5 -9 -3 -5 1 -12 10 -15 10 -4 13 -2 8 7 -5 9 -3 8 7 -1
12 -11 12 -14 -1 -22 -8 -5 -10 -10 -4 -10 5 0 16 6 23 13 11 10 13 9 8 -5 -8
-23 9 -33 21 -12 7 12 9 5 6 -25 -1 -23 1 -39 6 -36 5 3 7 12 4 19 -3 8 -1 17
5 21 7 4 8 -1 4 -12 -6 -16 -5 -17 13 -3 17 13 18 13 7 0 -15 -19 -12 -42 7
-66 9 -11 10 -15 3 -10 -7 4 -13 2 -13 -3 0 -6 8 -11 18 -12 13 0 12 -2 -5 -9
-13 -5 -23 -12 -23 -15 0 -4 5 -3 12 1 7 5 8 3 4 -5 -5 -7 -15 -10 -23 -7 -8
3 -11 1 -8 -4 7 -12 -4 -54 -12 -46 -7 6 -37 -31 -46 -56 -3 -10 -13 -18 -21
-18 -9 0 -13 -6 -10 -13 3 -8 -3 -20 -13 -28 -17 -13 -17 -13 -3 6 14 18 14
19 -2 7 -9 -8 -14 -20 -11 -28 4 -11 0 -15 -13 -12 -14 2 -18 -2 -16 -16 2
-12 -1 -16 -9 -10 -8 4 -10 3 -5 -4 11 -19 -45 -97 -59 -84 -5 4 -4 0 1 -8 4
-8 9 -21 10 -28 2 -8 9 -19 17 -25 8 -7 17 -20 20 -29 4 -12 1 -16 -14 -13
-11 2 -17 0 -14 -5 3 -4 13 -7 23 -5 9 1 26 -2 37 -8 11 -6 26 -12 32 -13 18
-3 26 13 12 22 -8 5 -9 3 -4 -7 6 -11 5 -12 -5 -2 -18 16 -5 29 13 15 8 -7 16
-9 20 -6 3 3 17 7 31 8 20 3 24 0 16 -9 -8 -10 -8 -15 1 -21 8 -4 9 -3 5 4 -5
8 1 12 14 12 12 0 19 -4 16 -9 -3 -4 2 -8 12 -8 33 0 42 -3 42 -14 0 -5 -6 -7
-12 -3 -10 5 -10 4 -1 -6 9 -10 4 -22 -24 -56 -19 -24 -41 -44 -48 -44 -7 0
-15 -7 -19 -15 -3 -8 -9 -14 -13 -14 -4 1 -26 -6 -48 -16 -22 -10 -63 -20 -90
-23 l-51 -4 0 208 c0 115 -1 288 -2 384 -2 211 3 287 19 306 15 18 30 9 22
-14z m404 -6 c-7 -13 -15 -22 -20 -19 -5 3 -1 14 9 24 22 25 24 24 11 -5z
m586 -12 c-3 -8 0 -14 7 -14 6 0 8 5 5 10 -12 20 17 10 37 -12 11 -13 18 -18
15 -13 -2 6 5 19 16 30 l20 20 -13 -23 c-11 -22 -10 -23 9 -17 13 4 21 2 21
-5 0 -6 -4 -9 -8 -6 -5 3 -9 -1 -9 -9 0 -10 5 -11 18 -4 28 14 33 11 12 -8
-10 -10 -13 -14 -6 -9 13 8 17 2 13 -19 -1 -5 2 -6 7 -2 4 5 8 14 8 20 0 5 7
12 15 14 12 4 12 3 1 -5 -10 -8 -8 -13 10 -26 13 -9 19 -16 13 -16 -6 0 -11
-7 -11 -15 0 -8 4 -15 8 -15 12 0 59 -49 59 -62 0 -7 -7 -3 -15 8 -14 18 -14
17 -4 -9 11 -25 14 -26 29 -12 14 13 17 13 17 0 0 -8 -4 -12 -8 -10 -4 3 -9
-2 -13 -10 -6 -16 9 -29 24 -20 6 3 10 1 10 -4 0 -6 -7 -11 -15 -11 -18 0 -20
-16 -3 -26 7 -5 8 -3 3 6 -5 9 -4 11 4 6 6 -4 9 -12 6 -17 -4 -5 -2 -9 4 -9 6
0 4 -14 -4 -34 -14 -33 -12 -46 9 -46 7 0 7 3 -1 8 -8 5 -8 13 1 31 9 15 16
20 20 12 4 -6 2 -11 -4 -11 -6 0 -10 -8 -8 -18 2 -11 -3 -26 -11 -35 -15 -19
-1 -23 17 -5 9 9 11 6 7 -11 -2 -13 -9 -29 -15 -36 -8 -10 -8 -15 1 -21 8 -5
9 -3 4 6 -6 9 -4 11 4 5 9 -5 10 -10 2 -18 -7 -7 -7 -14 1 -24 8 -11 7 -12 -6
-7 -11 4 -15 13 -11 23 5 12 3 13 -6 4 -9 -9 -8 -16 3 -32 8 -12 19 -18 24
-13 4 4 3 0 -4 -10 -10 -13 -10 -17 0 -22 7 -3 3 -4 -10 -2 -17 3 -22 1 -18
-9 3 -8 -2 -21 -10 -30 -9 -8 -11 -15 -6 -15 5 0 17 10 26 22 l16 23 -10 -26
c-5 -15 -6 -30 -2 -34 3 -3 -2 -3 -13 0 -19 6 -19 6 -2 -8 15 -13 15 -16 2
-27 -8 -7 -12 -17 -8 -23 4 -6 1 -7 -6 -2 -9 5 -10 10 -2 18 14 14 14 27 0 27
-5 0 -8 -4 -4 -9 3 -5 1 -12 -4 -15 -5 -3 -7 -16 -4 -27 5 -18 3 -20 -18 -15
l-24 7 25 -15 25 -15 -25 -1 c-16 0 -21 -3 -12 -8 9 -6 4 -17 -19 -43 -18 -19
-29 -27 -25 -19 4 8 -1 5 -11 -6 -10 -12 -34 -30 -53 -40 -37 -19 -159 -46
-161 -35 -4 28 -6 856 -2 867 3 9 12 13 19 10 8 -3 11 0 7 10 -4 10 0 12 10 8
9 -3 13 -12 10 -20z m-330 2 c4 -10 1 -13 -8 -9 -8 3 -12 9 -9 14 7 12 11 11
17 -5z m392 5 c3 -5 2 -12 -3 -15 -5 -3 -9 1 -9 9 0 17 3 19 12 6z m-553 -45
c8 4 10 3 5 -2 -5 -5 -13 -9 -18 -9 -5 0 -8 -4 -6 -10 1 -5 6 -9 11 -7 5 2 1
-8 -8 -23 -9 -14 -13 -25 -9 -25 5 0 1 -5 -7 -10 -13 -8 -12 -10 4 -10 15 0
16 -3 6 -15 -7 -8 -17 -12 -24 -8 -7 4 -6 1 1 -9 7 -8 10 -18 6 -21 -3 -4 1
-7 9 -7 10 0 15 -7 14 -17 -2 -10 2 -22 8 -26 6 -5 0 -5 -14 -1 -14 3 -22 3
-18 -1 4 -5 3 -13 -2 -20 -7 -8 -5 -12 5 -12 8 0 12 4 9 9 -3 4 0 8 5 8 13 0
13 -3 5 -24 -3 -8 -13 -12 -22 -9 -10 3 -13 1 -7 -4 6 -4 17 -17 25 -27 14
-18 13 -19 -2 -13 -13 5 -16 1 -12 -19 3 -14 1 -23 -4 -20 -5 3 -9 -1 -9 -9 0
-8 4 -12 8 -9 4 2 9 1 12 -3 2 -5 3 -3 1 3 -1 6 4 11 11 11 10 0 11 -5 5 -17
-6 -10 -5 -21 1 -28 5 -7 6 -10 3 -7 -4 3 -14 -1 -23 -8 -14 -11 -14 -10 -2 6
9 11 10 17 2 17 -10 0 -13 -7 -10 -27 1 -5 5 -7 10 -5 15 4 10 -10 -8 -24 -16
-12 -16 -13 7 -8 22 4 23 3 5 -5 -11 -5 -30 -10 -41 -10 -21 -1 -22 3 -22 92
0 52 -2 107 -6 123 -3 16 -8 45 -11 64 -3 19 -8 43 -11 53 -6 20 33 80 47 72
5 -4 6 1 3 9 -3 8 4 24 15 35 12 12 21 27 22 34 0 6 4 2 10 -11 5 -15 13 -21
21 -16z m718 -71 c7 -9 8 -15 2 -15 -5 0 -12 7 -16 15 -3 8 -4 15 -2 15 2 0 9
-7 16 -15z m-960 -43 c-21 -7 -23 -6 -26 10 -2 14 1 15 17 5 11 -7 15 -13 9
-15z m232 -9 c-6 -2 -9 -10 -6 -15 4 -7 2 -8 -5 -4 -13 9 -5 26 12 25 9 0 8
-2 -1 -6z m185 -98 c0 -8 -6 -16 -14 -19 -11 -4 -11 -1 -3 14 13 24 17 25 17
5z m-363 -41 c3 -7 -5 -24 -17 -35 -12 -12 -16 -19 -9 -15 7 4 15 1 18 -8 3
-9 11 -13 18 -9 8 5 8 3 0 -8 -6 -8 -10 -22 -9 -32 2 -9 0 -15 -4 -13 -10 7
-8 -50 2 -60 4 -5 6 -2 4 6 -2 8 -2 12 0 8 13 -23 5 -25 -104 -35 -115 -10
-116 -7 -23 107 45 55 86 100 91 100 6 0 7 4 4 10 -3 5 0 7 9 4 8 -3 17 -12
20 -20z m366 -24 c0 -5 -8 -10 -17 -10 -15 0 -16 2 -3 10 19 12 20 12 20 0z
m-975 -50 c-3 -5 -12 -10 -18 -10 -7 0 -6 4 3 10 19 12 23 12 15 0z m970 -50
c-3 -5 -11 -10 -16 -10 -6 0 -7 5 -4 10 3 6 11 10 16 10 6 0 7 -4 4 -10z
m-340 -20 c3 -6 -1 -7 -9 -4 -18 7 -21 14 -7 14 6 0 13 -4 16 -10z m-309 -115
c-1 -9 -6 -15 -12 -15 -9 0 -13 19 -6 33 6 12 20 -2 18 -18z m24 -25 c0 -5 -5
-10 -11 -10 -5 0 -7 5 -4 10 3 6 8 10 11 10 2 0 4 -4 4 -10z m-353 -36 c-3 -3
-12 -4 -19 -1 -8 3 -5 6 6 6 11 1 17 -2 13 -5z m553 -25 c0 -5 5 -7 10 -4 6 3
10 1 10 -4 0 -9 -17 -9 -48 -2 -2 1 0 6 3 11 8 13 25 13 25 -1z m-552 -24 c-6
-14 -13 -23 -15 -21 -5 5 15 46 22 46 3 0 -1 -11 -7 -25z m7 -35 c-3 -5 -12
-10 -18 -10 -7 0 -6 4 3 10 19 12 23 12 15 0z m974 -14 c9 -10 8 -15 -2 -19
-8 -3 -13 3 -13 14 0 23 0 23 15 5z m-194 -44 c-3 -3 -11 0 -18 7 -9 10 -8 11
6 5 10 -3 15 -9 12 -12z m5 -22 c0 -5 -4 -10 -10 -10 -5 0 -10 5 -10 10 0 6 5
10 10 10 6 0 10 -4 10 -10z m180 -20 c6 -11 8 -20 6 -20 -3 0 -10 9 -16 20 -6
11 -8 20 -6 20 3 0 10 -9 16 -20z m77 -145 c0 -8 -4 -12 -9 -9 -5 3 -6 10 -3
15 9 13 12 11 12 -6z m-257 -15 c0 -5 -7 -7 -15 -4 -8 4 -15 8 -15 10 0 2 7 4
15 4 8 0 15 -4 15 -10z"/>
<path d="M365 1349 c-4 -6 -5 -12 -2 -15 2 -3 7 2 10 11 7 17 1 20 -8 4z"/>
<path d="M523 673 c-17 -6 -17 -20 0 -20 8 0 14 6 14 14 0 7 -1 13 -1 12 -1 0
-7 -3 -13 -6z"/>
<path d="M616 608 c3 -5 10 -6 15 -3 13 9 11 12 -6 12 -8 0 -12 -4 -9 -9z"/>
<path d="M580 560 c-9 -6 -10 -10 -3 -10 6 0 15 5 18 10 8 12 4 12 -15 0z"/>
<path d="M1530 1240 c0 -5 5 -10 11 -10 5 0 7 5 4 10 -3 6 -8 10 -11 10 -2 0
-4 -4 -4 -10z"/>
<path d="M1633 1015 c0 -8 4 -12 9 -9 5 3 6 10 3 15 -9 13 -12 11 -12 -6z"/>
<path d="M1660 905 c-7 -9 -8 -15 -2 -15 5 0 12 7 16 15 3 8 4 15 2 15 -2 0
-9 -7 -16 -15z"/>
<path d="M1650 800 c0 -5 5 -10 11 -10 5 0 7 5 4 10 -3 6 -8 10 -11 10 -2 0
-4 -4 -4 -10z"/>
<path d="M845 1240 c3 -5 8 -10 11 -10 2 0 4 5 4 10 0 6 -5 10 -11 10 -5 0 -7
-4 -4 -10z"/>
<path d="M836 1112 c-3 -5 1 -9 9 -9 8 0 12 4 9 9 -3 4 -7 8 -9 8 -2 0 -6 -4
-9 -8z"/>
<path d="M667 1016 c-4 -10 -1 -13 8 -9 8 3 12 9 9 14 -7 12 -11 11 -17 -5z"/>
<path d="M730 1280 c-6 -11 -8 -20 -6 -20 3 0 10 9 16 20 6 11 8 20 6 20 -3 0
-10 -9 -16 -20z"/>
<path d="M1020 1223 c0 -5 5 -15 10 -23 7 -12 9 -10 7 8 -1 19 -17 33 -17 15z"/>
<path d="M45 1211 c-3 -5 -2 -12 3 -15 5 -3 9 1 9 9 0 17 -3 19 -12 6z"/>
<path d="M30 1186 c0 -3 9 -10 20 -16 11 -6 20 -8 20 -6 0 3 -9 10 -20 16 -11
6 -20 8 -20 6z"/>
<path d="M43 1113 c4 -3 1 -13 -6 -22 -11 -14 -10 -14 5 -2 16 12 16 31 1 31
-4 0 -3 -3 0 -7z"/>
<path d="M1020 940 c0 -5 5 -10 11 -10 5 0 7 5 4 10 -3 6 -8 10 -11 10 -2 0
-4 -4 -4 -10z"/>
<path d="M825 660 c-3 -5 -1 -10 4 -10 6 0 11 5 11 10 0 6 -2 10 -4 10 -3 0
-8 -4 -11 -10z"/>
<path d="M55 570 c-3 -5 -2 -10 4 -10 5 0 13 5 16 10 3 6 2 10 -4 10 -5 0 -13
-4 -16 -10z"/>
<path d="M830 436 c7 -7 14 -6 21 1 9 9 7 12 -9 10 -14 -1 -18 -5 -12 -11z"/>
<path d="M256 373 c-6 -14 -5 -15 5 -6 7 7 10 15 7 18 -3 3 -9 -2 -12 -12z"/>
<path d="M335 380 c-3 -5 -1 -10 4 -10 6 0 11 5 11 10 0 6 -2 10 -4 10 -3 0
-8 -4 -11 -10z"/>
<path d="M1150 364 c0 -8 5 -12 10 -9 6 4 8 11 5 16 -9 14 -15 11 -15 -7z"/>
<path d="M1186 372 c-3 -6 3 -12 14 -15 11 -3 23 0 27 6 3 7 3 9 -2 5 -4 -4
-14 -3 -21 3 -7 6 -15 6 -18 1z"/>
</g>
</svg>
